<?xml version="1.0" encoding="utf-8"?>
<!-- Generator: Adobe Illustrator 21.0.2, SVG Export Plug-In . SVG Version: 6.00 Build 0)  -->
<svg version="1.1" id="Layer_1" xmlns="http://www.w3.org/2000/svg" xmlns:xlink="http://www.w3.org/1999/xlink" x="0px" y="0px"
	 viewBox="0 0 691.5 286.5" style="enable-background:new 0 0 691.5 286.5;" xml:space="preserve">
<style type="text/css">
	.st0{fill:#0D2D6C;}
	.st1{fill:#EE3350;}
</style>
<g>
	<path class="st0" d="M428.1,64.1c-3.8,0-7,3.1-7,7v62.2l-52.4-66.5c-1.8-2.3-5-3.2-7.8-2.2c-2.8,1-4.7,3.6-4.7,6.6v82
		c0,3.8,3.1,7,7,7c3.8,0,7-3.1,7-7V90.3l52.4,67.1c1.3,1.7,3.3,2.6,5.4,2.6c0.8,0,1.6-0.1,2.3-0.4c2.8-1,4.7-3.6,4.7-6.6v-82
		C435.1,67.2,432,64.1,428.1,64.1"/>
	<path class="st0" d="M127.5,143.2c-1.2-1.5-3-2.3-5-2.3c-1,0-2.5,0.2-3.9,1.1c-5.4,3.3-11.3,4.8-18,4.8c-20.3,0-33.9-14-33.9-34.8
		c0-20.5,13.3-34.8,32.2-34.8c6.9,0,12.7,1.3,17.7,4l0,0c1.2,0.6,2.5,0.9,3.7,0.9c2.3,0,4.1-1,5.3-2.9c0.6-1,1-2.1,1-3.2
		c0-2.2-1.2-4.2-3.4-5.6c-6.5-4-15.4-6.3-24.5-6.3c-27.4,0-46.5,19.7-46.5,47.9c0,28.7,19,47.9,47.3,47.9c9.6,0,19.2-2.8,26.2-7.8
		c1.9-1.4,3-3.5,3-5.5C128.7,145.3,128.3,144.1,127.5,143.2"/>
	<path class="st0" d="M504.8,160c10.9,0,23.6-4.1,31.6-10.2c1.1-0.8,3.7-3.2,3.7-7.2v-28.2c0-3.8-3.1-6.9-6.9-6.9h-30.1
		c-3.5,0-6.5,3-6.5,6.6c0,3.6,3,6.6,6.5,6.6h23.8v18.9c-4.6,4.1-13.8,7.2-21.8,7.2c-20.1,0-33-13.6-33-34.7
		c0-20.8,13.1-34.7,32.7-34.7c6.1,0,12.1,1.4,17.1,4.1c1.3,0.7,2.7,1.1,4.1,1.1c2.3,0,4.4-1.1,5.5-3.1c0.6-1.1,1-2.3,1-3.4
		c0-2.2-1.3-4.3-3.4-5.5c-7.2-4.3-15.8-6.4-25.6-6.4c-26.6,0-45.9,20.2-45.9,48C457.4,141.2,476,160,504.8,160"/>
	<path class="st0" d="M618.5,145.8h-42.1v-26.6h33.9c3.7,0,6.7-3,6.7-6.7c0-3.7-2.9-6.7-6.7-6.7h-34V78.6h42.1c3.8,0,7-3.1,7-7
		c0-3.8-3.1-7-7-7h-49.1c-3.8,0-7,3.1-7,7v41.1v2.8v37.3c0,3.8,3.1,7,7,7h49.1c3.8,0,7-3.1,7-7C625.4,148.9,622.3,145.8,618.5,145.8
		"/>
	<path class="st0" d="M223.1,152.9V71c0-3.7-3.2-6.9-7-6.9c-3.9,0-7.1,3.1-7.1,6.9v34.8h-45.1V71c0-3.7-3.2-6.9-7-6.9
		c-3.9,0-7.1,3.1-7.1,6.9v82c0,3.9,3.2,7,7.1,7c3.9,0,7-3.1,7-7v-33.7h45.1v33.7c0,3.9,3.2,7,7.1,7
		C220,159.9,223.1,156.8,223.1,152.9"/>
</g>
<g>
	<path class="st1" d="M295.7,67.4c-1.1-2.2-3.3-3.5-5.8-3.5h0c-2.4,0-4.6,1.3-5.8,3.5l-43.1,82.9c-1,2-1,4.4,0.2,6.4
		c1.2,1.9,3.3,3.1,5.5,3.1h31.3c3.6,0,6.5-2.9,6.5-6.5c0-3.6-2.9-6.5-6.5-6.5h-20.7l32.4-62.3l32.2,62.3h-20.7
		c-3.6,0-6.5,2.9-6.5,6.5c0,3.6,2.9,6.5,6.5,6.5h31.3c2.3,0,4.4-1.2,5.5-3.1c1.2-1.9,1.3-4.3,0.2-6.4L295.7,67.4z"/>
	<path class="st1" d="M159.1,194.8c-2.5,0-4.4,1.9-4.4,4.4v13.1h-17.8v-13.1c0-2.5-1.9-4.4-4.4-4.4c-2.5,0-4.4,1.9-4.4,4.4v35.5
		c0,2.5,1.9,4.4,4.4,4.4c2.5,0,4.4-1.9,4.4-4.4v-14.1h17.8v14.1c0,2.5,1.9,4.4,4.4,4.4c2.5,0,4.4-1.9,4.4-4.4v-35.5
		C163.5,196.7,161.6,194.8,159.1,194.8"/>
	<path class="st1" d="M201.3,230.2h-13.4v-9.4h11c2.3,0,4.1-1.8,4.1-4.2c0-2.3-1.8-4.1-4.1-4.1h-11v-9h12.8c2.3,0,4.1-1.8,4.1-4.2
		c0-2.3-1.8-4.1-4.1-4.1h-17.6c-2.2,0-4.1,1.8-4.1,4.1v35.3c0,2.3,1.8,4.1,4.1,4.1h18.2c2.3,0,4.1-1.8,4.1-4.2
		C205.4,232.1,203.6,230.2,201.3,230.2"/>
	<path class="st1" d="M241,198.2c-1.2-2.8-3.2-3.4-4.7-3.4c-2.2,0-3.8,1.2-4.8,3.4l-14.9,35.1c-0.2,0.5-0.4,1.1-0.4,1.6
		c0,2.3,1.8,4.1,4.1,4.1c1.8,0,3.2-0.9,3.9-2.5l3.4-8.3h17l3.3,8c0.4,1,1.5,2.7,4.3,2.7c2.3,0,4.1-1.8,4.1-4.1
		c0-0.5-0.1-1.1-0.4-1.7L241,198.2z M241.1,220h-10.2l5.1-12.4L241.1,220z"/>
	<path class="st1" d="M291.8,230.2h-14.5v-31c0-2.5-1.9-4.4-4.4-4.4c-2.5,0-4.4,1.9-4.4,4.4v35c0,2.5,1.9,4.4,4.4,4.4h19
		c2.4,0,4.4-1.9,4.4-4.2C296.2,232.1,294.2,230.2,291.8,230.2"/>
	<path class="st1" d="M331.6,195.1h-27.9c-2.3,0-4.1,1.8-4.1,4.1c0,2.4,1.8,4.2,4.1,4.2h9.5v31.2c0,2.5,2,4.4,4.4,4.4
		c2.5,0,4.4-1.9,4.4-4.4v-31.2h9.5c2.3,0,4.1-1.8,4.1-4.2C335.7,196.9,333.9,195.1,331.6,195.1"/>
	<path class="st1" d="M379.3,194.8c-2.5,0-4.4,1.9-4.4,4.4v13.1h-17.8v-13.1c0-2.5-1.9-4.4-4.4-4.4c-2.5,0-4.4,1.9-4.4,4.4v35.5
		c0,2.5,1.9,4.4,4.4,4.4c2.5,0,4.4-1.9,4.4-4.4v-14.1H375v14.1c0,2.5,1.9,4.4,4.4,4.4c2.5,0,4.4-1.9,4.4-4.4v-35.5
		C383.7,196.7,381.8,194.8,379.3,194.8"/>
	<path class="st1" d="M426,229.3c-2.1,1-4.2,1.5-6.4,1.5c-8.3,0-13.8-5.6-13.8-14.1c0-8.4,5.2-14.1,13-14.1c2,0,4,0.4,6.1,1.3
		c0.7,0.3,1.5,0.5,2.3,0.5c1.5,0,2.8-0.7,3.6-2.1c0.4-0.8,0.6-1.4,0.6-2.1c0-1.6-1-3-2.7-3.8c-2.8-1.4-6.4-2.2-9.8-2.2
		c-13.3,0-22.2,9-22.2,22.4c0,13.4,9,22.4,22.4,22.4c5.1,0,8.6-0.9,11.8-3c1.2-0.8,2-2.2,2-3.5c0-0.9-0.2-1.6-0.7-2.4
		C430.7,228.6,428.9,228.1,426,229.3"/>
	<path class="st1" d="M465.8,198.2c-1.2-2.8-3.2-3.4-4.7-3.4c-2.2,0-3.8,1.2-4.8,3.4l-14.9,35.1c-0.2,0.5-0.4,1.1-0.4,1.6
		c0,2.3,1.8,4.1,4.1,4.1c1.8,0,3.2-0.9,3.9-2.5l3.4-8.3h17l3.3,8c0.4,1,1.5,2.7,4.3,2.7c2.3,0,4.1-1.8,4.1-4.1
		c0-0.5-0.1-1.1-0.4-1.7L465.8,198.2z M466,220h-10.2l5.1-12.4L466,220z"/>
	<path class="st1" d="M513.6,221c3.9-1.7,7.7-5.7,7.7-12.3c0-6.2-2.8-13.7-16-13.7c-0.8,0-5.6,0.1-9.1,0.1c-2.5,0-4.4,1.9-4.4,4.4
		v35.2c0,2.5,2,4.4,4.4,4.4c2.5,0,4.4-1.9,4.4-4.4v-11.8h4.1l10.2,13.8c1.1,1.4,2.1,2.4,4,2.4c2.4,0,4.3-1.8,4.3-4.1
		c0-0.9-0.3-1.8-0.9-2.7L513.6,221z M500.7,203.4l0.2,0c1.6-0.1,3-0.1,4.1-0.1c4.8,0,7.1,1.8,7.1,5.4c0,4.3-3.9,5.8-7.3,5.8h-4.1
		V203.4z"/>
	<path class="st1" d="M558,230.2h-13.4v-9.4h11c2.3,0,4.1-1.8,4.1-4.2c0-2.3-1.8-4.1-4.1-4.1h-11v-9h12.8c2.3,0,4.1-1.8,4.1-4.2
		c0-2.3-1.8-4.1-4.1-4.1h-17.6c-2.2,0-4.1,1.8-4.1,4.1v35.3c0,2.3,1.8,4.1,4.1,4.1H558c2.3,0,4.1-1.8,4.1-4.2
		C562,232.1,560.2,230.2,558,230.2"/>
</g>
</svg>
