<?xml version="1.0" encoding="utf-8"?>
<!-- Generator: Adobe Illustrator 21.1.0, SVG Export Plug-In . SVG Version: 6.00 Build 0)  -->
<svg version="1.1" id="logo_x5F_color" xmlns="http://www.w3.org/2000/svg" xmlns:xlink="http://www.w3.org/1999/xlink" x="0px"
	 y="0px" viewBox="0 0 139.8 55.1" style="enable-background:new 0 0 139.8 55.1;" xml:space="preserve">
<style type="text/css">
	.st0{fill:none;}
	.st1{fill:#EA4335;}
	.st2{fill:#FBBC05;}
	.st3{fill:#4285F4;}
	.st4{fill:#34A853;}
</style>
<g>
	<rect x="9.4" y="11.3" class="st0" width="120" height="44"/>
	<g>
		<path class="st1" d="M59.9,32.4c0,5.5-4.3,9.5-9.5,9.5s-9.5-4-9.5-9.5c0-5.5,4.3-9.5,9.5-9.5S59.9,26.9,59.9,32.4z M55.7,32.4
			c0-3.4-2.5-5.8-5.3-5.8S45,28.9,45,32.4c0,3.4,2.5,5.8,5.3,5.8S55.7,35.7,55.7,32.4z"/>
		<path class="st2" d="M80.9,32.4c0,5.5-4.3,9.5-9.5,9.5s-9.5-4-9.5-9.5c0-5.5,4.3-9.5,9.5-9.5S80.9,26.9,80.9,32.4z M76.7,32.4
			c0-3.4-2.5-5.8-5.3-5.8S66,28.9,66,32.4c0,3.4,2.5,5.8,5.3,5.8S76.7,35.7,76.7,32.4z"/>
		<path class="st3" d="M101,23.4v17.1c0,7-4.1,9.9-9,9.9c-4.6,0-7.4-3.1-8.4-5.6l3.6-1.5c0.7,1.5,2.2,3.4,4.8,3.4
			c3.1,0,5.1-1.9,5.1-5.6v-1.4h-0.1c-0.9,1.2-2.7,2.2-5,2.2c-4.8,0-9-4.1-9-9.5c0-5.4,4.3-9.5,9-9.5c2.3,0,4.1,1,5,2.1h0.1v-1.5
			L101,23.4L101,23.4z M97.3,32.4c0-3.4-2.2-5.8-5.1-5.8c-2.9,0-5.2,2.5-5.2,5.8c0,3.3,2.3,5.7,5.2,5.7
			C95.1,38.1,97.3,35.7,97.3,32.4z"/>
		<path class="st4" d="M108.4,13.4v27.9h-4.2V13.4H108.4z"/>
		<path class="st1" d="M124.6,35.5l3.2,2.2c-1,1.5-3.6,4.2-7.9,4.2c-5.4,0-9.4-4.2-9.4-9.5c0-5.6,4.1-9.5,9-9.5c4.9,0,7.3,3.9,8.1,6
			L128,30l-12.7,5.3c1,1.9,2.5,2.9,4.6,2.9S123.5,37.1,124.6,35.5z M114.6,32.1l8.5-3.5c-0.5-1.2-1.9-2-3.5-2
			C117.5,26.5,114.5,28.4,114.6,32.1z"/>
		<path class="st3" d="M38.8,25.5c0.2,1,0.2,1.9,0.2,2.8c0,3-0.8,6.8-3.4,9.4c-2.6,2.7-5.9,4.1-10.3,4.1c-8.1,0-15-6.6-15-14.8
			c0-8.1,6.8-14.8,15-14.8c4.5,0,7.7,1.8,10.1,4.1l-2.8,2.8c-1.7-1.6-4.1-2.9-7.3-2.9c-5.9,0-10.6,4.8-10.6,10.7s4.6,10.7,10.6,10.7
			c3.9,0,6-1.5,7.5-3c1.2-1.1,1.9-2.8,2.2-5.4h-9.7v-4C25.4,25.5,38.8,25.5,38.8,25.5z"/>
	</g>
</g>
</svg>
