<?xml version="1.0" encoding="utf-8"?>
<!-- Generator: Adobe Illustrator 22.1.0, SVG Export Plug-In . SVG Version: 6.00 Build 0)  -->
<svg version="1.1" id="Layer_1" xmlns="http://www.w3.org/2000/svg" xmlns:xlink="http://www.w3.org/1999/xlink" x="0px" y="0px"
	 viewBox="0 0 708.7 708.7" style="enable-background:new 0 0 708.7 708.7;" xml:space="preserve">
<style type="text/css">
	.st0{fill:#0988C9;}
	.st1{fill:#104965;}
</style>
<g>
	<g>
		<g>
			<path class="st0" d="M119,506.6c0-5.7-2.5-9.5-8.6-9.5c-5,0-9.6,3.4-12,6.7c-0.1,0.2-0.2,0.4-0.2,0.7v35.3c0,0.6-0.5,1.1-1.1,1.1
				H88c-0.6,0-1.1-0.5-1.1-1.1v-33.1c0-5.7-2.5-9.5-8.7-9.5c-4.9,0-9.4,3.4-11.9,6.8c-0.1,0.2-0.2,0.4-0.2,0.7v35.1
				c0,0.6-0.5,1.1-1.1,1.1h-9.2c-0.6,0-1.1-0.5-1.1-1.1v-50.3c0-0.6,0.5-1.1,1.1-1.1h9.2c0.6,0,1.1,0.5,1.1,1.1v3
				c0,1,1.2,1.5,1.9,0.8c3.2-3,8.9-6.3,15.2-6.3c7,0,11.5,3.1,13.7,7.8c0.3,0.8,1.3,0.9,1.9,0.2c3.5-4.2,9.7-8.1,16.7-8.1
				c9.7,0,15.1,5.2,15.1,15.9v36.8c0,0.6-0.5,1.1-1.1,1.1h-9.2c-0.6,0-1.1-0.5-1.1-1.1V506.6z"/>
			<path class="st0" d="M175.1,537.9c0-1-1.1-1.5-1.9-0.8c-3.9,3.3-9.2,5.1-15.1,5.1c-8.6,0-18.3-5.8-18.3-17.4
				c0-12.1,9.7-17.1,18.3-17.1c6,0,11.3,1.6,15.1,4.9c0.7,0.6,1.9,0.1,1.9-0.8v-5.1c0-6.1-5-9.8-12.3-9.8c-5.4,0-10.2,1.9-14.5,5.7
				c-0.5,0.5-1.4,0.4-1.7-0.2l-3.5-5.9c-0.3-0.5-0.2-1.1,0.2-1.4c6-5.3,13.3-7.8,21.4-7.8c11.6,0,21.9,4.9,21.9,19v33.7
				c0,0.6-0.5,1.1-1.1,1.1h-9.2c-0.6,0-1.1-0.5-1.1-1.1V537.9z M175.1,521.4c0-0.3-0.1-0.5-0.2-0.7c-2.7-3.4-7.4-5.1-12.3-5.1
				c-6.4,0-11.2,3.7-11.2,9.5c0,5.7,4.8,9.4,11.2,9.4c4.9,0,9.6-1.7,12.3-5.1c0.2-0.2,0.2-0.5,0.2-0.7V521.4z"/>
			<path class="st0" d="M217.8,522.8l-12.4,17.6c-0.2,0.3-0.6,0.5-0.9,0.5h-9.9c-0.9,0-1.5-1-0.9-1.8l17.5-24.5
				c0.3-0.4,0.3-0.9,0-1.3l-16.4-23.1c-0.5-0.8,0-1.8,0.9-1.8h10c0.4,0,0.7,0.2,0.9,0.5l11.2,16c0.5,0.6,1.4,0.6,1.9,0l11.1-16
				c0.2-0.3,0.6-0.5,0.9-0.5h10c0.9,0,1.5,1,0.9,1.8l-16.4,23.1c-0.3,0.4-0.3,0.9,0,1.3l17.6,24.5c0.5,0.7,0,1.8-0.9,1.8h-10
				c-0.4,0-0.7-0.2-0.9-0.5l-12.3-17.6C219.2,522.2,218.3,522.2,217.8,522.8z"/>
			<path class="st0" d="M283.5,505.8l-10.9,34.3c-0.1,0.5-0.6,0.8-1.1,0.8h-10.3c-0.5,0-0.9-0.3-1.1-0.8l-15.6-50.3
				c-0.2-0.7,0.3-1.5,1.1-1.5h9.5c0.5,0,0.9,0.3,1.1,0.8L266,523c0.3,1.1,1.8,1.1,2.2,0l11.1-33.9c0.2-0.5,0.6-0.8,1.1-0.8h8.4
				c0.5,0,0.9,0.3,1.1,0.8l11.1,33.9c0.3,1.1,1.9,1,2.2,0l9.8-33.8c0.1-0.5,0.6-0.8,1.1-0.8h9.5c0.8,0,1.3,0.7,1.1,1.5L309,540.1
				c-0.1,0.5-0.6,0.8-1.1,0.8h-10.3c-0.5,0-0.9-0.3-1.1-0.8l-10.9-34.3C285.3,504.7,283.8,504.7,283.5,505.8z"/>
			<path class="st0" d="M354.2,487c15.8,0,25.9,12.1,25.9,28.6v2.7h-39.3c-0.7,0-1.3,0.6-1.1,1.3c1.4,7.3,7.2,13.2,16.6,13.2
				c4.7,0,10.2-1.7,13.9-4.9c0.5-0.4,1.3-0.4,1.7,0.2l3.9,5.6c0.3,0.5,0.3,1.1-0.2,1.5c-5.2,4.6-12.6,6.9-20.6,6.9
				c-15.8,0-27.5-11-27.5-27.6C327.5,499.3,338.6,487,354.2,487z M340.7,510.3h27.1c0.7,0,1.2-0.6,1.1-1.3
				c-0.7-5.9-5.1-12.6-14.7-12.6c-9.1,0-13.6,6.6-14.6,12.6C339.4,509.7,340,510.3,340.7,510.3z"/>
			<path class="st0" d="M390.3,468.3h9.2c0.6,0,1.1,0.5,1.1,1.1v70.3c0,0.6-0.5,1.1-1.1,1.1h-9.2c-0.6,0-1.1-0.5-1.1-1.1v-70.3
				C389.2,468.8,389.7,468.3,390.3,468.3z"/>
			<path class="st0" d="M414.4,468.3h9.2c0.6,0,1.1,0.5,1.1,1.1v70.3c0,0.6-0.5,1.1-1.1,1.1h-9.2c-0.6,0-1.1-0.5-1.1-1.1v-70.3
				C413.2,468.8,413.7,468.3,414.4,468.3z"/>
		</g>
		<g>
			<g>
				<path class="st1" d="M437.4,560.4V490c0-0.6,0.5-1.1,1.1-1.1h11.6c0.6,0,1.1,0.5,1.1,1.1v2.6c0,1,1.2,1.5,1.9,0.8
					c3.9-3.8,8.8-5.8,14.3-5.8c13.5,0,23.3,10,23.3,27.6c0,17.6-9.8,27.7-23.3,27.7c-5.3,0-10.3-1.9-14.3-5.9
					c-0.7-0.7-1.9-0.2-1.9,0.8v22.7c0,0.6-0.5,1.1-1.1,1.1h-11.6C437.9,561.6,437.4,561.1,437.4,560.4z M463.1,499.8
					c-4.3,0-9.3,2.5-11.7,5.7c-0.1,0.2-0.2,0.4-0.2,0.7v17.9c0,0.3,0.1,0.5,0.2,0.7c2.4,3.1,7.3,5.7,11.7,5.7
					c8,0,13.3-6.2,13.3-15.4C476.4,506.1,471.1,499.8,463.1,499.8z"/>
				<path class="st1" d="M500.1,468.8h11.6c0.6,0,1.1,0.5,1.1,1.1v70.5c0,0.6-0.5,1.1-1.1,1.1h-11.6c-0.6,0-1.1-0.5-1.1-1.1v-70.5
					C499,469.3,499.5,468.8,500.1,468.8z"/>
				<path class="st1" d="M560,537.6c0-1-1.2-1.5-1.9-0.8c-3.7,3.3-9.4,6.1-16.6,6.1c-11.6,0-17-6.3-17-16.6V490
					c0-0.6,0.5-1.1,1.1-1.1h11.6c0.6,0,1.1,0.5,1.1,1.1v30.8c0,7.3,3.8,9.7,9.7,9.7c5.2,0,9.3-2.7,11.7-5.7c0.2-0.2,0.3-0.5,0.3-0.7
					V490c0-0.6,0.5-1.1,1.1-1.1h11.6c0.6,0,1.1,0.5,1.1,1.1v50.4c0,0.6-0.5,1.1-1.1,1.1h-11.6c-0.6,0-1.1-0.5-1.1-1.1V537.6z"/>
				<path class="st1" d="M586.1,526.1c0.4-0.6,1.1-0.7,1.7-0.3c4.1,3.3,11.2,6.4,17.3,6.4c6,0,8.8-2.1,8.8-5.3c0-3.7-4.6-5-10.6-6.2
					c-9.1-1.7-20.7-3.9-20.7-16.5c0-8.8,7.7-16.6,21.6-16.6c8.5,0,15.3,2.8,20.4,6.6c0.5,0.3,0.6,1,0.3,1.5l-4.2,7.4
					c-0.4,0.6-1.2,0.8-1.7,0.3c-3.3-2.9-8.8-5.2-14.6-5.2c-5,0-8.3,1.9-8.3,4.9c0,3.3,4.1,4.5,10,5.7c9.1,1.7,21.2,4.1,21.2,17.2
					c0,9.7-8.2,16.9-22.8,16.9c-8.8,0-17.2-2.8-22.8-7.5c-0.4-0.4-0.5-1-0.2-1.5L586.1,526.1z"/>
			</g>
			<path class="st1" d="M665.1,480.4h-10.8v-10.8c0-0.5-0.4-0.9-0.9-0.9h-9.1c-0.5,0-0.9,0.4-0.9,0.9v10.8h-10.8
				c-0.5,0-0.9,0.4-0.9,0.9v9.1c0,0.5,0.4,0.9,0.9,0.9h10.8v10.8c0,0.5,0.4,0.9,0.9,0.9h9.1c0.5,0,0.9-0.4,0.9-0.9v-10.8h10.8
				c0.5,0,0.9-0.4,0.9-0.9v-9.1C666,480.8,665.6,480.4,665.1,480.4z"/>
		</g>
	</g>
	<g>
		<path class="st0" d="M253.3,372.6c-51.5-51.5-51.5-135.4,0-186.9s135.4-51.5,186.9,0s51.5,135.4,0,186.9S304.8,424.1,253.3,372.6z
			 M433,192.9c-47.6-47.6-124.9-47.6-172.5,0c-47.6,47.6-47.6,124.9,0,172.5C308,413,385.4,413,433,365.4
			C480.5,317.9,480.5,240.5,433,192.9z"/>
		<path class="st0" d="M268.6,336.9c0.8-0.8,0.9-2.1,0.2-3c-26.3-37.1-23.6-90.6,10.2-124.5c33.9-33.9,87.5-36.6,124.5-10.3
			c0.9,0.7,2.2,0.6,3-0.2l3.9-3.9c1-1,0.9-2.8-0.3-3.6c-40.7-29.4-100.7-26.9-138.4,10.7c-37.7,37.7-40.2,97.8-10.7,138.4
			c0.9,1.2,2.6,1.3,3.6,0.3L268.6,336.9z"/>
		<path class="st0" d="M423.8,354.2c-37.2,37.2-95.9,40.5-137,11.7c-1.3-0.9-1.4-2.8-0.3-3.9l3.6-3.6c0.9-0.9,2.2-1,3.3-0.3
			c37.3,25.9,89.8,22.5,123.3-11.1c33.5-33.5,37-85.9,11.1-123.3c-0.7-1-0.6-2.4,0.3-3.2l3.6-3.6c1.1-1.1,3-1,3.9,0.3
			C464.4,258.2,461.1,316.9,423.8,354.2z"/>
		<path class="st0" d="M307.4,217.2c0.8,0.8,2,0.9,3,0.3c27.7-17.6,64.4-14.2,88.4,9.8c24,24,27.4,60.7,9.8,88.4
			c-0.6,1-0.5,2.2,0.3,3l3.9,3.9c1.1,1.1,2.9,0.9,3.7-0.4c20.5-31.4,17.2-74.4-10.5-102.1c-27.7-27.7-70.7-31-102.1-10.5
			c-1.3,0.8-1.4,2.6-0.4,3.7L307.4,217.2z"/>
		<path class="st0" d="M387.1,340c-0.8-0.8-2-0.9-3-0.4c-26.4,15.6-63.6,13.1-87.2-10.5c-23.6-23.6-26.1-60.8-10.5-87.2
			c0.6-1,0.4-2.2-0.4-3l-3.8-3.8c-1.1-1.1-3-0.9-3.9,0.4c-18.3,30.1-15.9,73.4,11.3,100.7c27.3,27.3,70.6,29.7,100.7,11.3
			c1.4-0.8,1.5-2.7,0.4-3.9L387.1,340z"/>
	</g>
</g>
</svg>
