<?xml version="1.0" encoding="utf-8"?>
<!-- Generator: Adobe Illustrator 21.1.0, SVG Export Plug-In . SVG Version: 6.00 Build 0)  -->
<svg version="1.1" id="Layer_1" xmlns="http://www.w3.org/2000/svg" xmlns:xlink="http://www.w3.org/1999/xlink" x="0px" y="0px"
	 viewBox="0 0 595.3 205" style="enable-background:new 0 0 595.3 205;" xml:space="preserve">
<style type="text/css">
	.st0{fill:#00A1DF;}
	.st1{clip-path:url(#SVGID_2_);fill:#00A1DF;}
	.st2{clip-path:url(#SVGID_2_);fill:#002D73;}
</style>
<g>
	<polygon class="st0" points="142.6,174.2 139.8,174.2 139.8,155 134.4,155 134.4,152.7 148,152.7 148,155 142.6,155 	"/>
	<g>
		<defs>
			<rect id="SVGID_1_" x="38.9" y="31.1" width="509.7" height="150.7"/>
		</defs>
		<clipPath id="SVGID_2_">
			<use xlink:href="#SVGID_1_"  style="overflow:visible;"/>
		</clipPath>
		<path class="st1" d="M153.7,161.4c1.4-1.7,2.7-2.4,4.5-2.4c1.3,0,2.6,0.5,3.5,1.4c0.8,0.8,1.2,2,1.2,3.9v10h-2.5v-9.9
			c0-2-1-3.2-2.8-3.2c-1.1,0-2.1,0.5-2.9,1.3c-0.7,0.8-1,1.6-1,3v8.7h-2.5v-21.5h2.5V161.4z"/>
		<path class="st1" d="M169.4,167.6c0.1,1.3,0.4,1.9,1,2.7c1,1.3,2.4,2,4,2c1.8,0,3.6-1,4.5-2.5l2.2,0.8c-1.2,2.5-3.8,4-6.6,4
			c-4.4,0-7.6-3.2-7.6-7.7c0-4.6,3.1-7.8,7.5-7.8c4.3,0,7.6,3.3,7.6,7.6c0,0.2,0,0.6,0,1H169.4z M179.2,165.7
			c-0.1-1.2-0.3-1.8-0.8-2.6c-0.9-1.3-2.5-2-4.1-2c-1.6,0-3.1,0.8-4,2.1c-0.5,0.7-0.6,1.3-0.8,2.5H179.2z"/>
		<rect x="196.6" y="152.7" class="st1" width="2.7" height="21.5"/>
		<path class="st1" d="M207.1,159.3v2.1c1.1-1.7,2.4-2.4,4.2-2.4c2,0,3.3,0.9,4,2.7c1.1-1.9,2.5-2.7,4.7-2.7c1.7,0,3,0.5,3.8,1.6
			c0.7,0.9,0.9,1.8,0.9,4.1v9.5h-2.5v-8.9c0-1.8-0.1-2.2-0.4-2.8c-0.5-0.8-1.4-1.3-2.6-1.3c-2.2,0-3.4,1.5-3.4,4.1v8.9h-2.5v-8.9
			c0-1.5-0.1-2.2-0.5-2.8c-0.4-0.8-1.3-1.3-2.4-1.3c-2.2,0-3.5,1.6-3.5,4.1v8.9h-2.5v-14.9H207.1z"/>
		<path class="st1" d="M241.2,159.3h2.5v14.9h-2.5v-2.9c-1.5,2.2-3.2,3.2-5.4,3.2c-4.1,0-7-3.2-7-7.7c0-4.6,3-7.8,7.1-7.8
			c2.3,0,3.9,0.9,5.4,2.8V159.3z M232.6,162.9c-0.8,1.1-1.2,2.5-1.2,3.9c0,3.2,2.1,5.6,4.8,5.6c2.8,0,5.1-2.6,5.1-5.8
			c0-3.2-2.1-5.5-5-5.5C234.6,161.2,233.5,161.7,232.6,162.9"/>
		<path class="st1" d="M260.1,159.3h2.5v15c0,2.5-0.6,4.2-2,5.5c-1.3,1.3-3.2,2-5.5,2c-2.8,0-5-0.9-6.6-2.7l1.7-1.7
			c0.7,0.7,1,1,1.4,1.3c0.8,0.5,2.2,0.9,3.5,0.9c1.5,0,3-0.5,3.9-1.5c0.7-0.8,1.1-2,1.1-3.6v-3.1c-1.5,2.2-3.2,3.2-5.5,3.2
			c-3.9,0-6.9-3.3-6.9-7.7c0-2.4,0.9-4.7,2.4-6.1c1.2-1.2,2.8-1.7,4.7-1.7c2.3,0,3.8,0.8,5.3,2.9V159.3z M250.3,166.7
			c0,3.2,2.1,5.6,4.9,5.6c1.4,0,2.8-0.7,3.8-1.8c0.6-0.7,1.1-2.2,1.1-3.7c0-1.9-0.3-3-1.2-3.9c-0.9-1-2.3-1.6-3.6-1.6
			C252.3,161.2,250.3,163.5,250.3,166.7"/>
		<path class="st1" d="M270.4,155.2c0,0.9-0.7,1.5-1.6,1.5c-0.9,0-1.5-0.7-1.5-1.6c0-0.9,0.7-1.6,1.6-1.6
			C269.8,153.5,270.4,154.3,270.4,155.2 M270.1,174.2h-2.5v-14.9h2.5V174.2z"/>
		<path class="st1" d="M277.6,159.3v2.1c1.3-1.7,2.6-2.5,4.4-2.5c1.4,0,2.6,0.5,3.5,1.2c0.9,0.9,1.3,1.9,1.3,4v10h-2.5v-9.5
			c0-1.3-0.2-2-0.5-2.5c-0.5-0.6-1.3-1-2.3-1c-1.1,0-2.1,0.4-2.8,1.3c-0.7,0.8-1,1.5-1,2.7v9.1h-2.5v-14.9H277.6z"/>
		<path class="st1" d="M303.1,159.3h2.5v15c0,2.5-0.6,4.2-2,5.5c-1.3,1.3-3.2,2-5.5,2c-2.8,0-5-0.9-6.6-2.7l1.7-1.7
			c0.7,0.7,1,1,1.4,1.3c0.8,0.5,2.2,0.9,3.5,0.9c1.5,0,3-0.5,3.9-1.5c0.7-0.8,1.1-2,1.1-3.6v-3.1c-1.5,2.2-3.2,3.2-5.5,3.2
			c-3.9,0-6.9-3.3-6.9-7.7c0-2.4,0.9-4.7,2.4-6.1c1.2-1.2,2.8-1.7,4.7-1.7c2.3,0,3.8,0.8,5.3,2.9V159.3z M293.3,166.7
			c0,3.2,2.1,5.6,4.9,5.6c1.4,0,2.8-0.7,3.8-1.8c0.6-0.7,1.1-2.2,1.1-3.7c0-1.9-0.3-3-1.2-3.9c-0.9-1-2.3-1.6-3.6-1.6
			C295.3,161.2,293.3,163.5,293.3,166.7"/>
		<path class="st1" d="M322.8,168.4c0.1,2.5,1.5,3.7,3.8,3.7c2.4,0,4.1-1.5,4.1-3.6c0-1.9-1-2.7-4.4-3.9c-2.6-0.9-3.4-1.3-4.4-2.2
			c-1.1-1-1.7-2.4-1.7-4.1c0-3.6,2.6-6.1,6.4-6.1c3.8,0,6.3,2.4,6.4,6.2h-2.7c0-1.1-0.2-1.6-0.5-2.2c-0.6-0.9-1.8-1.5-3.2-1.5
			c-2.1,0-3.6,1.5-3.6,3.5c0,1,0.5,1.9,1.2,2.5c0.7,0.5,1.3,0.7,3.5,1.5c2.3,0.8,3.4,1.4,4.3,2.3c0.9,1,1.5,2.4,1.5,3.8
			c0,3.7-2.7,6.2-6.8,6.2c-2.7,0-4.6-1-5.7-2.9c-0.5-0.9-0.7-1.8-0.7-2.8v-0.5H322.8z"/>
		<path class="st1" d="M351.8,166.8c0,4.4-3.4,7.7-7.6,7.7c-4.4,0-7.5-3.2-7.5-7.8c0-4.6,3.1-7.8,7.6-7.8
			C348.6,159,351.8,162.2,351.8,166.8 M339.1,166.8c0,3.3,2,5.5,5.1,5.5c2.9,0,5-2.3,5-5.5c0-3.3-2-5.6-5-5.6
			C341.2,161.2,339.1,163.5,339.1,166.8"/>
		<path class="st1" d="M358.5,174.2H356v-12.7h-2v-2.2h2v-2c0-2.9,1.5-4.7,4.1-4.7c0.1,0,0.4,0,0.7,0v2.2c-1.8,0.2-2.3,0.7-2.3,2.5
			v2h2.3v2.2h-2.3V174.2z"/>
		<path class="st1" d="M367.8,171.2c0,0.7,0.2,0.9,1.1,0.9h1.1v2.1h-2.3c-1.7,0-2.4-0.7-2.4-2.3v-10.4h-2.1v-2.2h2.1v-4.7h2.5v4.7
			h2.3v2.2h-2.3V171.2z"/>
		<polygon class="st1" points="394.4,159.3 389.1,174.2 386.9,174.2 383.5,162.9 379.9,174.2 377.5,174.2 372.4,159.3 375,159.3 
			378.8,170.3 382.2,159.3 384.6,159.3 388,170.3 391.9,159.3 		"/>
		<path class="st1" d="M408.4,159.3h2.5v14.9h-2.5v-2.9c-1.5,2.2-3.2,3.2-5.4,3.2c-4.1,0-7-3.2-7-7.7c0-4.6,3-7.8,7.1-7.8
			c2.3,0,3.9,0.9,5.4,2.8V159.3z M399.8,162.9c-0.8,1.1-1.2,2.5-1.2,3.9c0,3.2,2.1,5.6,4.8,5.6c2.8,0,5.1-2.6,5.1-5.8
			c0-3.2-2.1-5.5-5-5.5C401.8,161.2,400.7,161.7,399.8,162.9"/>
		<path class="st1" d="M418.4,159.3v2.5c0.5-1.1,0.8-1.5,1.4-2c0.7-0.6,1.8-0.9,2.8-0.9h0.6v2.5c-0.3,0-0.5,0-0.7,0
			c-1.3,0-2.5,0.6-3.2,1.7c-0.6,0.9-0.9,1.8-0.9,3.5v7.6H416v-14.9H418.4z"/>
		<path class="st1" d="M427.8,167.6c0.1,1.3,0.4,1.9,1,2.7c1,1.3,2.4,2,4,2c1.8,0,3.6-1,4.5-2.5l2.2,0.8c-1.2,2.5-3.8,4-6.6,4
			c-4.4,0-7.6-3.2-7.6-7.7c0-4.6,3.1-7.8,7.5-7.8c4.3,0,7.6,3.3,7.6,7.6c0,0.2,0,0.6,0,1H427.8z M437.6,165.7
			c-0.1-1.2-0.3-1.8-0.8-2.6c-0.9-1.3-2.5-2-4.1-2c-1.6,0-3.1,0.8-4,2.1c-0.5,0.7-0.6,1.3-0.8,2.5H437.6z"/>
		<path class="st1" d="M457.7,174.2H455v-21.5h5.7c5.1,0,7.9,2.3,7.9,6.6c0,2.1-0.8,4-2.3,5.2c-1.3,1-2.9,1.5-5.3,1.5h-3.3V174.2z
			 M460.5,163.7c1.2,0,1.9-0.1,2.7-0.4c1.6-0.6,2.7-2.1,2.7-3.9c0-1.8-1-3.3-2.7-3.9c-0.8-0.3-1.7-0.4-3-0.4h-2.5v8.7H460.5z"/>
		<path class="st1" d="M473.3,167.6c0.1,1.3,0.4,1.9,1,2.7c1,1.3,2.4,2,4,2c1.8,0,3.6-1,4.5-2.5l2.2,0.8c-1.2,2.5-3.8,4-6.6,4
			c-4.4,0-7.6-3.2-7.6-7.7c0-4.6,3.1-7.8,7.5-7.8c4.3,0,7.6,3.3,7.6,7.6c0,0.2,0,0.6,0,1H473.3z M483.2,165.7
			c-0.1-1.2-0.3-1.8-0.8-2.6c-0.9-1.3-2.5-2-4.1-2c-1.6,0-3.1,0.8-4,2.1c-0.5,0.7-0.6,1.3-0.8,2.5H483.2z"/>
		<path class="st1" d="M503.9,166.8c0,4.4-3.4,7.7-7.6,7.7c-4.4,0-7.5-3.2-7.5-7.8c0-4.6,3.1-7.8,7.6-7.8
			C500.7,159,503.9,162.2,503.9,166.8 M491.2,166.8c0,3.3,2,5.5,5.1,5.5c2.9,0,5-2.3,5-5.5c0-3.3-2-5.6-5-5.6
			C493.3,161.2,491.2,163.5,491.2,166.8"/>
		<path class="st1" d="M510.4,159.3v2.7c1.4-2.2,2.9-3.1,5.4-3.1c4.1,0,7,3.2,7,7.7c0,4.7-2.9,7.9-7,7.9c-1.2,0-2.2-0.3-3.3-0.8
			c-0.9-0.5-1.4-0.8-2.2-1.9v9.3H508v-21.9H510.4z M510.4,167c0,3.3,2,5.4,4.9,5.4c2.9,0,4.9-2.3,4.9-5.7c0-1.7-0.4-3.1-1.3-4
			c-0.9-1-2.2-1.5-3.5-1.5C512.4,161.2,510.4,163.5,510.4,167"/>
		<rect x="527" y="152.7" class="st1" width="2.5" height="21.5"/>
		<path class="st1" d="M536.2,167.6c0.1,1.3,0.4,1.9,1,2.7c1,1.3,2.4,2,4,2c1.8,0,3.6-1,4.5-2.5l2.2,0.8c-1.2,2.5-3.8,4-6.6,4
			c-4.4,0-7.6-3.2-7.6-7.7c0-4.6,3.1-7.8,7.5-7.8c4.3,0,7.6,3.3,7.6,7.6c0,0.2,0,0.6,0,1H536.2z M546,165.7
			c-0.1-1.2-0.3-1.8-0.8-2.6c-0.9-1.3-2.5-2-4.1-2c-1.6,0-3.1,0.8-4,2.1c-0.5,0.7-0.6,1.3-0.8,2.5H546z"/>
		<polygon class="st2" points="90.6,128.6 58.9,67.8 58.9,128.6 38.9,128.6 38.9,31.1 61.5,31.1 90.6,87.4 		"/>
		<polygon class="st1" points="97.9,87.4 127,31.1 149.7,31.1 149.7,128.6 129.7,128.6 129.7,67.8 97.9,128.6 		"/>
		<rect x="167.7" y="31.1" class="st2" width="20" height="97.5"/>
		<path class="st2" d="M225.4,128.6h-20V31.1h30.1c24.1,0,37.1,10.7,37.1,30.7c0,15.3-8,25.6-23.1,29.4l26.9,37.4h-24.3l-26.7-38.7
			V128.6z M234.5,78.1c11.4,0,17.8-5.6,17.8-15.3c0-9.4-6.1-15.2-16.1-15.2h-10.8v30.6H234.5z"/>
		<path class="st2" d="M307.4,111.8l-5.8,16.8h-21.2L314,31.1h25l33.3,97.5h-21.9l-5.6-16.8H307.4z M326.1,55l-13.6,40.3h27
			L326.1,55z"/>
		<path class="st2" d="M379,31.1h27.6c15.8,0,26.5,3.2,35.1,10.8c9.9,8.8,15.3,21.5,15.3,36.8c0,15.6-5.6,29.7-15.5,38.6
			c-8,7.3-19.7,11.3-33.8,11.3H379V31.1z M399,112.1h3.8c10.7,0,17.2-1.9,22.9-6.7c7-6,11-15.2,11-26c0-19.4-11.8-32-30.4-32H399
			V112.1z"/>
		<path class="st2" d="M482.6,111.8l-5.8,16.8h-21.2l33.6-97.5h25l33.3,97.5h-21.9l-5.6-16.8H482.6z M501.3,55l-13.6,40.3h27
			L501.3,55z"/>
	</g>
</g>
</svg>
