<?xml version="1.0" encoding="utf-8"?>
<!-- Generator: Adobe Illustrator 21.1.0, SVG Export Plug-In . SVG Version: 6.00 Build 0)  -->
<svg version="1.1" id="NVIDIA_Logo_1_" xmlns="http://www.w3.org/2000/svg" xmlns:xlink="http://www.w3.org/1999/xlink" x="0px"
	 y="0px" viewBox="0 0 918 586" enable-background="new 0 0 918 586" xml:space="preserve">
<path id="Reg_1_" d="M773.77,527.84v-2.66h1.71c0.93,0,2.2,0.07,2.2,1.21c0,1.23-0.65,1.45-1.75,1.45H773.77 M773.77,529.71h1.14
	l2.64,4.64h2.9l-2.92-4.83c1.51-0.11,2.76-0.83,2.76-2.87c0-2.53-1.75-3.34-4.7-3.34h-4.27v11.05h2.45V529.71 M786.2,528.84
	c0-6.49-5.04-10.25-10.66-10.25c-5.66,0-10.69,3.76-10.69,10.25c0,6.48,5.04,10.26,10.69,10.26
	C781.16,539.1,786.2,535.33,786.2,528.84 M783.12,528.84c0,4.73-3.48,7.9-7.58,7.9v-0.04c-4.22,0.04-7.63-3.14-7.63-7.87
	c0-4.72,3.41-7.88,7.63-7.88C779.65,520.96,783.12,524.12,783.12,528.84z"/>
<path id="NVIDIA_4_" d="M395.1,419.06l0.01,116.42h32.88V419.06L395.1,419.06z M136.45,418.9v116.58h33.17v-88.52l25.7,0.01
	c8.51,0,14.58,2.12,18.68,6.5c5.2,5.54,7.32,14.48,7.32,30.83v51.19h32.14v-64.41c0-45.97-29.3-52.17-57.97-52.17H136.45z
	 M448.04,419.07v116.42h53.33c28.41,0,37.69-4.73,47.72-15.32c7.09-7.44,11.67-23.76,11.67-41.61c0-16.36-3.88-30.96-10.64-40.05
	c-12.18-16.26-29.73-19.43-55.93-19.43H448.04z M480.65,444.41h14.14c20.51,0,33.77,9.21,33.77,33.11
	c0,23.9-13.26,33.11-33.77,33.11h-14.14V444.41z M347.69,419.07l-27.44,92.27l-26.29-92.26l-35.49-0.01l37.55,116.42h47.39
	l37.85-116.42H347.69z M576.05,535.48h32.88V419.07l-32.89-0.01L576.05,535.48z M668.22,419.11l-45.91,116.33h32.42l7.26-20.56
	h54.33l6.88,20.56h35.2L712.14,419.1L668.22,419.11z M689.56,440.33l19.92,54.5h-40.46L689.56,440.33z"/>
<path id="Eye_Mark_1_" fill="#74B71B" d="M351.63,146.36v-27.97c2.71-0.19,5.46-0.34,8.25-0.43c76.49-2.4,126.68,65.73,126.68,65.73
	s-54.2,75.28-112.32,75.28c-8.37,0-15.86-1.35-22.61-3.62v-84.81c29.78,3.6,35.77,16.75,53.67,46.59l39.82-33.57
	c0,0-29.07-38.12-78.06-38.12C361.73,145.45,356.63,145.83,351.63,146.36 M351.63,53.97v41.78c2.75-0.22,5.49-0.39,8.25-0.49
	c106.38-3.58,175.68,87.24,175.68,87.24s-79.6,96.8-162.53,96.8c-7.6,0-14.71-0.7-21.4-1.89v25.82c5.72,0.73,11.64,1.15,17.82,1.15
	c77.18,0,132.99-39.41,187.03-86.06c8.95,7.17,45.64,24.63,53.18,32.28c-51.39,43.02-171.14,77.69-239.03,77.69
	c-6.54,0-12.83-0.39-19.01-0.99v36.29h293.32V53.97H351.63z M351.63,255.36v22.05c-71.38-12.73-91.19-86.92-91.19-86.92
	s34.27-37.97,91.19-44.12v24.19c-0.04,0-0.07-0.01-0.11-0.01c-29.87-3.59-53.21,24.32-53.21,24.32S311.39,241.84,351.63,255.36
	 M224.85,187.27c0,0,42.3-62.42,126.78-68.88V95.75c-93.56,7.51-174.58,86.75-174.58,86.75s45.89,132.66,174.58,144.81v-24.07
	C257.19,291.35,224.85,187.27,224.85,187.27z"/>
</svg>
