<?xml version="1.0" encoding="utf-8"?>
<!-- Generator: Adobe Illustrator 22.1.0, SVG Export Plug-In . SVG Version: 6.00 Build 0)  -->
<svg version="1.1" xmlns="http://www.w3.org/2000/svg" xmlns:xlink="http://www.w3.org/1999/xlink" x="0px" y="0px"
	 viewBox="0 0 958.1 374.2" style="enable-background:new 0 0 958.1 374.2;" xml:space="preserve">
<style type="text/css">
	.st0{fill:#0B5ED7;}
</style>
<g id="New_Wordmark">
	<path class="st0" d="M365.1,124.7h-38.1v49.6h-39.6v-49.6h-38.1v124.7h38.1v-49.1h39.6v49.1h38.1V124.7L365.1,124.7z M497.6,224.4
		v-99.7h-38.1v124.7h68.8l5.7-25H497.6L497.6,224.4z M431.3,124.7h-38.1v124.7h38.1V124.7L431.3,124.7z M585.7,124.7h-38.1v124.7
		h38.1V124.7L585.7,124.7z M773.4,156.6c0-6.8,6.8-9.9,17.7-9.9c12,0,25,2.6,33.9,6.3l-3.1-27.1c-9.9-2.1-18.8-3.7-34.9-3.7
		c-30.8,0-51.6,12.1-51.6,37.6c0,43.8,59.4,35,59.4,55.3c0,7.8-5.7,12-19.8,12c-12.5,0-31.8-4.2-43.3-9.9l4.2,28.7
		c11.5,4.2,27.1,6.3,39.6,6.3c31.8,0,57.9-10.4,57.9-41.7C833.4,168.6,773.4,176.4,773.4,156.6L773.4,156.6z M666,219.7
		c35.5,0,57.9-18.3,57.9-50.1c0-35-24-47.5-63.1-47.5c-15.1,0-33.4,1-46.4,2.6v124.7h38.1v-29.7H666L666,219.7z M686.3,170.1
		c0,16.2-7.8,27.1-27.6,27.1h-6.3v-51.5c2.2-0.1,4.3-0.1,6.3-0.1C677.5,145.6,686.3,154.5,686.3,170.1L686.3,170.1z M176.3,219.7
		c35.5,0,57.9-18.3,57.9-50.1c0-35-24-47.5-63.1-47.5c-15.1,0-33.4,1-46.4,2.6v124.7h38.1v-29.7H176.3L176.3,219.7z M196.7,170.1
		c0,16.2-7.8,27.1-27.6,27.1h-6.3v-51.5c2.2-0.1,4.3-0.1,6.3-0.1C187.8,145.6,196.7,154.5,196.7,170.1L196.7,170.1z"/>
</g>
<g id="Info">
</g>
</svg>
