<?xml version="1.0" encoding="utf-8"?>
<!-- Generator: Adobe Illustrator 21.1.0, SVG Export Plug-In . SVG Version: 6.00 Build 0)  -->
<svg version="1.1" id="Layer_1" xmlns="http://www.w3.org/2000/svg" xmlns:xlink="http://www.w3.org/1999/xlink" x="0px" y="0px"
	 viewBox="0 0 1190.55 474.74" enable-background="new 0 0 1190.55 474.74" xml:space="preserve">
<path fill="none" d="M434.46,80.41c0-10.67-5.63-17.21-16.14-17.21h-19.2v33.66h19.2C425.93,96.86,434.46,93.66,434.46,80.41z"/>
<path fill="none" d="M242.09,231.07c-0.01,6.5-5.16,11.82-11.66,12.02c-0.2,0.03-0.31,0.03-0.4,0.01c-0.06,0-0.07-0.01-0.07,0
	c-0.19,0-0.31-0.01-0.36-0.01H217.2c-1.45,0.24-2.7,1.08-4.16,2.66l-35.15,35.14c21.28,0,51.44,0,51.92,0
	c6.63,0.05,11.97,5.43,11.98,12.07c0,0.04,0.02,30.04,0.02,51.14l37.29-37.31c0.04-0.06,0.06-0.13,0.1-0.21
	c0.12-0.26,0.27-0.61,0.34-0.85V167.26h-37.47V231.07z"/>
<path fill="none" d="M142.19,400c-4.95,0-8.12,0-8.25-0.02c-6.65-0.01-12.06-5.39-12.06-12.07v-50.99l-35.93,35.93
	c-0.03,0.06-0.08,0.16-0.13,0.25c-0.13,0.28-0.26,0.67-0.35,0.89v62.46c12.67,0,61.44,0,61.58,0c1.74-0.02,3.26-0.76,4.48-2.06
	L185.91,400h-24.76H142.19z"/>
<path fill="none" d="M81.97,240.02c0.06,0,0.08,0.01,0.08,0c0.18,0,0.31,0.01,0.35,0.01h12.38c1.46-0.24,2.71-1.08,4.17-2.66
	l35.15-35.13c-21.29,0-51.44,0-51.93-0.01c-6.63-0.05-11.97-5.43-11.97-12.06c0-0.05-0.01-30.05-0.01-51.14l-37.3,37.3
	c-0.03,0.07-0.06,0.13-0.1,0.22c-0.12,0.26-0.27,0.61-0.35,0.84v138.48h37.47v-63.81c0.01-6.5,5.16-11.81,11.67-12.01
	C81.77,240,81.89,240,81.97,240.02z"/>
<polygon fill="none" points="1037.27,112.4 1063.78,112.4 1050.53,75.54 "/>
<path fill="none" d="M169.81,83.12c4.94,0,8.12,0,8.25,0.02c6.65,0.01,12.05,5.39,12.06,12.07v50.99l35.93-35.92
	c0.04-0.08,0.08-0.16,0.13-0.26c0.13-0.28,0.26-0.67,0.34-0.88V46.67c-12.66,0.01-61.43,0.01-61.56,0.01
	c-1.74,0.02-3.27,0.75-4.48,2.06l-34.38,34.37h24.76H169.81z"/>
<path fill="none" d="M841.72,63.2h-14.01v76.01h14.01c16.3,0,25.6-9.75,25.6-25.74V88.95C867.31,72.81,858.01,63.2,841.72,63.2z"/>
<path fill="#0069AA" d="M391.05,156.12c4.27,0,8.07-3.65,8.07-8.08v-35.79h19.2c19.5,0,32.29-12.64,32.29-31.83
	c0-19.5-13.25-32.59-32.29-32.59h-25.44c-5.49,0-9.9,4.41-9.9,9.74v90.48C382.99,152.46,386.64,156.12,391.05,156.12z M399.12,63.2
	h19.2c10.51,0,16.14,6.54,16.14,17.21c0,13.25-8.53,16.45-16.14,16.45h-19.2V63.2z"/>
<path fill="#0069AA" d="M473.9,156.12c4.27,0,8.08-3.65,8.08-8.08V54.36c0-4.41-3.81-8.07-8.08-8.07c-4.42,0-8.07,3.66-8.07,8.07
	v93.67C465.83,152.46,469.48,156.12,473.9,156.12z"/>
<path fill="#0069AA" d="M512.59,154.59h45.23c4.27,0,7.92-3.35,7.92-7.76c0-4.28-3.65-7.62-7.92-7.62h-38.99v-32.3h35.95
	c4.42,0,7.93-3.35,7.93-7.62c0-4.42-3.51-7.76-7.93-7.76h-35.95V63.2h37.93c4.42,0,7.92-3.2,7.92-7.47c0-4.42-3.5-7.91-7.92-7.91
	h-44.17c-5.49,0-9.91,4.56-9.91,9.74v87.28C502.68,150.33,507.4,154.59,512.59,154.59z"/>
<path fill="#0069AA" d="M703.73,46.29c-3.19,0-6.39,1.99-7.92,4.72l-30,53.62l-30-53.62c-1.52-2.74-4.42-4.72-7.92-4.72
	c-4.72,0-8.84,3.95-8.84,8.83v92.91c0,4.43,3.65,8.08,8.08,8.08c4.26,0,8.06-3.65,8.06-8.08V81.49l22.87,41.42
	c1.52,2.74,4.41,4.56,7.76,4.56c3.2,0,6.25-1.82,7.77-4.56l22.85-41.42v66.54c0,4.43,3.66,8.08,7.92,8.08
	c4.42,0,8.23-3.65,8.23-8.08V55.12C712.57,50.24,708.61,46.29,703.73,46.29z"/>
<path fill="#0069AA" d="M788.42,139.21h-39v-32.3h35.96c4.41,0,7.92-3.35,7.92-7.62c0-4.42-3.51-7.76-7.92-7.76h-35.96V63.2h37.93
	c4.43,0,7.93-3.2,7.93-7.47c0-4.42-3.49-7.91-7.93-7.91h-44.16c-5.48,0-9.9,4.56-9.9,9.74v87.28c0,5.48,4.71,9.75,9.9,9.75h45.24
	c4.27,0,7.91-3.35,7.91-7.76C796.33,142.55,792.68,139.21,788.42,139.21z"/>
<path fill="#0069AA" d="M841.57,47.82h-20.11c-5.48,0-9.89,4.41-9.89,9.74v87.28c0,5.33,4.41,9.75,9.89,9.75h20.11
	c24.98,0,41.88-16.61,41.88-41.43V89.25C883.45,64.41,866.55,47.82,841.57,47.82z M867.31,113.47c0,15.99-9.3,25.74-25.6,25.74
	h-14.01V63.2h14.01c16.3,0,25.6,9.61,25.6,25.75V113.47z"/>
<path fill="#0069AA" d="M909.49,46.29c-4.42,0-8.07,3.66-8.07,8.07v93.67c0,4.43,3.65,8.08,8.07,8.08c4.27,0,8.06-3.65,8.06-8.08
	V54.36C917.56,49.95,913.76,46.29,909.49,46.29z"/>
<path fill="#0069AA" d="M974.83,61.22c5.19,0,10.22,1.98,15.1,5.03c1.38,0.76,2.73,1.21,4.11,1.21c4.4,0,7.91-3.34,7.91-7.46
	c0-2.58-1.36-5.01-3.66-6.54c-7.31-4.74-15.23-7.17-23.47-7.17c-23.45,0-39.28,15.83-39.28,39.45v30.92
	c0,23.61,15.83,39.45,39.28,39.45c8.24,0,16.16-2.43,23.47-7.16c2.3-1.52,3.66-4.11,3.66-6.7c0-4.42-3.66-7.61-7.77-7.61
	c-1.53,0-3.05,0.46-4.41,1.38c-4.88,3.03-9.75,5.15-14.94,5.15c-14.77,0-23.14-9.74-23.14-24.52V85.74
	C951.68,70.97,960.05,61.22,974.83,61.22z"/>
<path fill="#0069AA" d="M1058.91,52.23c-1.23-3.51-4.88-5.94-8.38-5.94c-3.81,0-7.17,2.59-8.38,5.8l-33.51,93.52
	c-0.32,0.91-0.46,1.67-0.46,2.6c0,4.4,3.66,7.91,7.77,7.91c3.35,0,6.25-1.98,7.47-5.18l8.37-23.15h37.47l8.22,23.15
	c1.23,3.2,4.28,5.18,7.49,5.18c4.55,0,7.91-3.81,7.91-7.91c0-0.78-0.16-1.83-0.45-2.6L1058.91,52.23z M1037.27,112.4l13.26-36.86
	l13.25,36.86H1037.27z"/>
<path fill="#0069AA" d="M1160.5,139.21h-39v-84.7c0-4.42-3.65-8.22-8.07-8.22c-4.25,0-8.06,3.66-8.06,8.07v90.33
	c0,5.17,4.41,9.9,9.9,9.9h45.39c4.41,0,7.77-3.35,7.77-7.76C1168.42,142.55,1164.91,139.21,1160.5,139.21z"/>
<path fill="#89D4E3" d="M394.71,290.4v-99.17c0-2.9-2.44-5.33-5.34-5.33c-2.89,0-5.32,2.43-5.32,5.33v99.17
	c0,2.89,2.43,5.32,5.32,5.32C392.27,295.73,394.71,293.3,394.71,290.4z"/>
<path fill="#89D4E3" d="M423.64,185.91c-3.35,0-6.09,2.74-6.09,6.25v98.24c0,2.89,2.44,5.32,5.33,5.32c2.89,0,5.32-2.43,5.32-5.32
	v-80.75l27.89,54.09c1.05,2.12,3.19,3.35,5.47,3.35c2.44,0,4.42-1.23,5.48-3.35l27.88-54.09v80.75c0,2.89,2.58,5.32,5.32,5.32
	c2.9,0,5.33-2.43,5.33-5.32v-98.24c0-3.52-2.73-6.25-6.08-6.25c-2.44,0-4.42,1.37-5.64,3.65l-32.29,62.31l-32.3-62.31
	C428.07,187.27,426.08,185.91,423.64,185.91z"/>
<path fill="#89D4E3" d="M593.32,295.73c2.89,0,5.18-2.59,5.18-5.18c0-0.61-0.16-1.07-0.32-1.68l-33.5-99.01
	c-0.76-2.29-3.19-3.96-5.79-3.96c-2.59,0-5.02,1.67-5.78,3.96l-33.51,99.01c-0.15,0.61-0.31,1.07-0.31,1.68
	c0,2.9,2.58,5.18,5.19,5.18c2.13,0,4.11-1.37,4.87-3.5l9.29-27.58h40.51l9.3,27.58C589.21,294.36,591.19,295.73,593.32,295.73z
	 M542.14,254.44l16.75-50.71l16.75,50.71H542.14z"/>
<path fill="#89D4E3" d="M672.97,284.15v-39.91c0-3.97-3.2-7.16-7-7.16h-21.18c-2.91,0-5.18,2.29-5.18,5.18
	c0,2.89,2.27,5.03,5.18,5.03h17.52v35.18c-5.64,1.99-12.79,3.35-19.49,3.35c-8.08,0-14.48-2.43-19.05-6.99
	c-4.57-4.73-7-11.28-7-19.35v-37.31c0-8.07,2.43-14.63,7-19.35c4.57-4.57,10.98-7.01,19.05-7.01c6.85,0,14.01,3.19,18.43,5.48
	c0.91,0.47,1.82,0.62,2.74,0.62c2.9,0,5.03-2.29,5.03-4.88c0-1.82-0.76-3.64-2.44-4.55c-6.85-3.97-15.98-6.55-23.75-6.55
	c-10.83,0-20.12,3.51-26.66,10.05c-6.71,6.7-10.06,15.83-10.06,26.65v36.41c0,10.82,3.5,19.96,10.06,26.66
	c6.54,6.54,15.83,10.05,26.66,10.05c8.97,0,19.03-1.82,26.03-5.02C671.46,289.48,672.97,286.89,672.97,284.15z"/>
<path fill="#89D4E3" d="M698.09,185.9c-2.89,0-5.34,2.43-5.34,5.33v99.17c0,2.89,2.45,5.32,5.34,5.32c2.91,0,5.34-2.43,5.34-5.32
	v-99.17C703.43,188.33,701,185.9,698.09,185.9z"/>
<path fill="#89D4E3" d="M788.43,185.9c-2.9,0-5.34,2.43-5.34,5.33v81.18l-45.24-83.31c-1.06-1.97-3.2-3.2-5.48-3.2
	c-3.35,0-6.08,2.75-6.08,6.26v98.24c0,2.89,2.42,5.32,5.33,5.32c2.88,0,5.31-2.43,5.31-5.32v-81.04l45.25,83.18
	c1.07,1.97,3.19,3.19,5.32,3.19c3.51,0,6.25-2.74,6.25-6.25v-98.24C793.75,188.33,791.16,185.9,788.43,185.9z"/>
<path fill="#89D4E3" d="M873.41,237.08h-21.18c-2.9,0-5.18,2.29-5.18,5.18c0,2.89,2.29,5.03,5.18,5.03h17.52v35.18
	c-5.64,1.99-12.79,3.35-19.51,3.35c-8.07,0-14.47-2.43-19.03-6.99c-4.58-4.73-7-11.28-7-19.35v-37.31c0-8.07,2.43-14.63,7-19.35
	c4.56-4.57,10.97-7.01,19.03-7.01c6.86,0,14.02,3.19,18.44,5.48c0.91,0.47,1.82,0.62,2.74,0.62c2.91,0,5.04-2.29,5.04-4.88
	c0-1.82-0.77-3.64-2.44-4.55c-6.86-3.97-16-6.55-23.77-6.55c-10.8,0-20.1,3.51-26.65,10.05c-6.71,6.7-10.05,15.83-10.05,26.65v36.41
	c0,10.82,3.5,19.96,10.05,26.66c6.55,6.54,15.85,10.05,26.65,10.05c8.99,0,19.04-1.82,26.05-5.02c2.58-1.23,4.1-3.82,4.1-6.56
	v-39.91C880.4,240.27,877.22,237.08,873.41,237.08z"/>
<path fill="#89D4E3" d="M86.16,320.1l0.01-63.82c4.17,0,11.5,0.01,13.35,0.01c4.63-0.3,6.96-3.85,8.5-4.99l65.33-65.33h-7.19
	c0,0-63.32-0.01-79.72-0.01c0-16.31-0.03-78.94-0.03-79l-0.02-7.17l-65.09,65.1c-3.23,3.49-4.96,7.64-5.14,12.28V320.1
	c0.01,6.64,5.38,12,12.03,12l45.92,0.01C80.78,332.11,86.14,326.74,86.16,320.1z M69.91,252.05v63.81H32.44V177.38
	c0.08-0.23,0.23-0.58,0.35-0.84c0.04-0.09,0.06-0.15,0.1-0.22l37.3-37.3c0,21.09,0.01,51.09,0.01,51.14
	c0.01,6.63,5.35,12.01,11.97,12.06c0.49,0.01,30.65,0.01,51.93,0.01l-35.15,35.13c-1.46,1.58-2.72,2.43-4.17,2.66H82.41
	c-0.05,0-0.17-0.01-0.35-0.01c0,0.01-0.03,0-0.08,0c-0.08-0.02-0.19-0.02-0.39,0.02C75.07,240.24,69.92,245.55,69.91,252.05z"/>
<path fill="#89D4E3" d="M173.86,99.39c0,16.28,0.02,78.89,0.02,78.89v7.19l63.76-63.78c3.24-3.48,4.96-7.64,5.13-12.27l0.01-66.96
	c0-5.63-1.21-12.04-9.05-12.04h-70.67c-4.76,0.19-8.91,1.89-12.31,5.04l-63.92,63.9l7.18,0.03
	C94.01,99.38,157.41,99.39,173.86,99.39z M160.47,48.75c1.21-1.32,2.74-2.05,4.48-2.06c0.14,0,48.9,0,61.56-0.01v62.46
	c-0.07,0.21-0.21,0.61-0.34,0.88c-0.04,0.1-0.09,0.19-0.13,0.26l-35.93,35.92V95.21c-0.01-6.68-5.4-12.06-12.06-12.07
	c-0.13-0.02-3.3-0.02-8.25-0.02h-18.96h-24.76L160.47,48.75z"/>
<path fill="#89D4E3" d="M283.79,151.01L237.87,151c-6.65,0.02-12.01,5.38-12.03,12.02l-0.01,63.82c-4.19,0-11.5-0.01-13.36-0.01
	c-4.64,0.31-6.96,3.86-8.51,5.01l-65.33,65.33h7.19c0,0,63.32,0,79.73,0c0,16.31,0.03,78.94,0.03,79.01l0.02,7.17l65.09-65.1
	c3.23-3.49,4.96-7.64,5.13-12.28V163.02C295.8,156.38,290.43,151.01,283.79,151.01z M279.55,305.74c-0.07,0.23-0.22,0.58-0.34,0.85
	c-0.04,0.08-0.06,0.15-0.1,0.21l-37.29,37.31c0-21.09-0.02-51.09-0.02-51.14c-0.01-6.64-5.35-12.01-11.98-12.07
	c-0.49,0-30.64,0-51.92,0l35.15-35.14c1.46-1.58,2.71-2.43,4.16-2.66h12.39c0.05,0,0.18,0.01,0.36,0.01c0-0.01,0.01,0,0.07,0
	c0.09,0.01,0.2,0.01,0.4-0.01c6.51-0.2,11.66-5.52,11.66-12.02v-63.81h37.47V305.74z"/>
<path fill="#89D4E3" d="M138.14,383.73c0-16.27-0.02-78.9-0.02-78.9v-7.18l-63.77,63.79c-3.23,3.48-4.95,7.63-5.12,12.27
	l-0.02,66.95c0,5.64,1.21,12.05,9.06,12.05h70.68c4.76-0.19,8.92-1.9,12.31-5.05l63.92-63.9l-7.18-0.02
	C217.99,383.74,154.59,383.73,138.14,383.73z M151.53,434.37c-1.22,1.31-2.75,2.05-4.48,2.06c-0.14,0-48.9,0-61.58,0v-62.46
	c0.09-0.22,0.22-0.6,0.35-0.89c0.05-0.1,0.1-0.19,0.13-0.25l35.93-35.93v50.99c0,6.68,5.41,12.06,12.06,12.07
	c0.13,0.02,3.3,0.02,8.25,0.02h18.95h24.76L151.53,434.37z"/>
</svg>
