<?xml version="1.0" encoding="utf-8"?>
<!-- Generator: Adobe Illustrator 21.1.0, SVG Export Plug-In . SVG Version: 6.00 Build 0)  -->
<svg version="1.1" id="Layer_1" xmlns="http://www.w3.org/2000/svg" xmlns:xlink="http://www.w3.org/1999/xlink" x="0px" y="0px"
	 viewBox="0 0 878 233" style="enable-background:new 0 0 878 233;" xml:space="preserve">
<style type="text/css">
	.st0{fill:none;}
	.st1{fill:#3253DC;}
</style>
<rect x="240.3" y="-399.7" transform="matrix(-1.836970e-16 1 -1 -1.836970e-16 555.7554 -320.209)" class="st0" width="395.4" height="1035"/>
<path class="st1" d="M257.6,87c2.1,0,3.9,1.7,3.9,3.9v74.5c0,2.1-1.9,3.8-3.9,3.8h-10.1c-1.9,0-3.8-1.5-3.8-3.6v-6.8
	c-5.1,7.5-13.9,12.7-26.7,12.7c-21.4,0-34.6-14.2-34.6-35.3V90.8c0-2.1,1.9-3.8,3.9-3.8h10.1c2.1,0,3.8,1.7,3.8,3.8v42.5
	c0,13.7,7.2,22.8,21.4,22.8c13.9,0,22.1-9.4,22.1-22.6V90.8c0-2.1,1.9-3.8,3.8-3.8H257.6 M108.7,45.8c-34.6,0-62.5,26.9-62.5,62.8
	c0,36,27.9,62.8,62.5,62.8c5.9,0,11.6-0.8,17-2.3l6.8,17.5c0.7,1.9,2.1,3.1,4.6,3.1h10.8c2.6,0,4.5-1.7,3.3-5l-8.8-22.9
	c17.3-10.9,28.8-30.2,28.8-53.3C171.2,72.7,143.3,45.8,108.7,45.8 M135.9,145l-7.9-20.5c-0.7-1.7-2.1-3.3-5.1-3.3h-10.3
	c-2.6,0-4.6,1.7-3.4,5l10.4,26.9c-3.4,0.9-7.1,1.3-10.9,1.3c-25.3,0-43.3-19.9-43.3-45.9c0-26,18-45.9,43.3-45.9S152,82.6,152,108.6
	C152,123.7,145.9,136.8,135.9,145 M829.5,165.1c0.9,2.1-0.2,4.1-2.7,4.1h-11.3c-2.1,0-3.8-1-4.5-3.1L790.1,110l-21.2,56.2
	c-0.9,2.2-2.4,3.1-4.5,3.1h-10.1c-2.1,0-3.6-0.9-4.5-3.1l-21.4-56.5l-21.1,56.5c-0.9,2.1-2.4,3.1-4.5,3.1h-10.6
	c-2.1,0-3.6-1-4.5-3.1L667,109.6l-21.6,56.5c-0.9,2.2-2.4,3.1-4.5,3.1h-10.1c-2.1,0-3.6-0.9-4.5-3.1l-21.1-56.5l-21.1,56.5
	c-0.7,2.1-2.4,3.1-4.5,3.1h-11c-2.6,0-3.6-2.1-2.7-4.1l28.6-74.8c0.9-2.2,2.4-3.3,4.5-3.3h12.3c2.1,0,3.6,1,4.5,3.3l20.2,54.6
	l20.4-54.6c0.9-2.2,2.4-3.3,4.5-3.3h12.2c2.1,0,3.6,1,4.5,3.3l20.2,54.6L718,90.3c0.9-2.2,2.4-3.3,4.5-3.3h12.2c2.1,0,3.6,1,4.5,3.3
	l20.5,54.6l20-54.6c0.9-2.2,2.4-3.3,4.5-3.3h12.3c2.1,0,3.6,1,4.5,3.3L829.5,165.1 M355.6,87h-10.1c-2.1,0-3.9,1.7-3.9,3.9v6.8
	c-5.1-7.7-15.1-13.2-26.9-13.2c-22.3,0-41.4,17.6-41.4,43.3c0,26,19.2,43.5,41.3,43.5c12,0,21.7-5.5,27.1-13.2v7.2
	c0,2.1,1.9,3.8,3.9,3.8h10.1c2.1,0,3.8-1.7,3.8-3.8V91C359.3,88.8,357.6,87,355.6,87 M316.5,155c-14.7,0-25.2-12-25.2-26.9
	c0-15.1,10.4-26.7,25.2-26.7c14.6,0,25.2,11.6,25.2,26.7C341.7,143,331.1,155,316.5,155 M476.1,157.6c2.2,2.7,0.3,4.8-0.9,5.7
	c-7,5.3-16.3,8.2-26.4,8.2c-25.5,0-42.5-18.7-42.5-43.3s17-43.5,42.5-43.5c10.1,0,19.3,2.9,26.4,8.2c1.2,0.9,2.9,2.7,0.9,5.7
	l-4.8,6.7c-1.9,2.6-4.1,1.9-6,0.7c-4.5-2.7-9.8-5-15.9-5c-14.9,0-24.8,12-24.8,27.2s9.9,27.1,24.8,27.1c6.2,0,11.1-2.4,15.6-5
	c1.9-1,3.9-1.9,6,0.9L476.1,157.6z M523.7,84.8c-24,0-43.1,18.8-43.1,43.3c0,24.7,19.2,43.3,43.1,43.3c24,0,43.1-18.7,43.1-43.3
	C566.9,103.7,547.7,84.8,523.7,84.8 M523.7,154.8c-14.7,0-25.2-11.8-25.2-26.7c0-15.1,10.4-26.7,25.2-26.7
	c14.7,0,25.2,11.6,25.2,26.7C548.9,143,538.4,154.8,523.7,154.8 M391,48c2.2,0,3.8,1.9,3.8,3.9v113.4c0,2.1-1.5,3.9-3.8,3.9h-10.1
	c-2.1,0-3.9-1.9-3.9-3.9V51.9c0-2.1,1.9-3.9,3.9-3.9H391"/>
</svg>
