<?xml version="1.0" encoding="utf-8"?>
<!-- Generator: Adobe Illustrator 21.1.0, SVG Export Plug-In . SVG Version: 6.00 Build 0)  -->
<svg version="1.1" id="Layer_1" xmlns="http://www.w3.org/2000/svg" xmlns:xlink="http://www.w3.org/1999/xlink" x="0px" y="0px"
	 viewBox="0 0 792 205" style="enable-background:new 0 0 792 205;" xml:space="preserve">
<style type="text/css">
	.st0{fill:#0C3D61;}
	.st1{fill:#158CC2;}
	.st2{fill:#66BABF;}
</style>
<g>
	<g>
		<path class="st0" d="M328.9,141c-4,2.9-10.2,6.2-22.4,6.2c-12.5,0-21.6-3.7-29.4-11.4c-9.2-9.1-12.6-20.4-12.6-30.4
			c0-12,5.2-22.8,12.1-29.7c6.8-6.8,17.5-12,31.3-12c12.3,0,23.4,4.4,30.9,11.5c7.3,6.8,12.5,17.3,12.5,30.4c0,6-1.3,10.9-3.4,15.5
			c-2,4.7-4.7,8-7.8,10.8L354,147l-17.4,2.2L328.9,141z M327.7,119.8c3-4.1,4.7-8.4,4.7-14.4c0-8.5-3.5-14.3-6.8-17.6
			c-4.6-4.7-11-7.1-17.6-7.1c-7.4,0-13.7,3.1-17.5,7.1c-4.6,4.7-7,11.7-7,18c0,6.5,2.3,12.7,6.7,17.4c4,4.1,9.5,7.1,17.3,7.1
			c3.4,0,6.5-0.6,9.6-2l-14.4-14.1l17.9-1.9L327.7,119.8z"/>
		<path class="st0" d="M380.9,91.9v29.5c0,2.4,0.2,6.1,3,8.6c1.2,1.1,3.4,2.5,7.2,2.5c3.2,0,5.8-1.1,7.3-2.5c2.5-2.4,2.9-6,2.9-8.6
			V91.9h17.3v31.2c0,6.1-0.6,11.9-6,17.1c-6.1,6-15.1,7-21.5,7c-6.6,0-15.5-1-21.6-7c-4.9-4.8-5.9-10.2-5.9-16.1V91.9H380.9z"/>
		<path class="st0" d="M473,91.9h17.3v53.5H473v-6.5c-4.7,7.2-11.4,8.3-15.8,8.3c-7.7,0-14.1-1.9-20-8.2c-5.6-6-7.8-12.9-7.8-20
			c0-9,3.4-16.7,8.3-21.6c4.7-4.7,11.1-7.3,18.6-7.3c4.6,0,11.9,1.1,16.8,7.8v-6H473z M451.1,108.8c-1.8,1.8-4,4.9-4,9.7
			s2,7.9,3.6,9.6c2.4,2.5,6.1,4.2,10.2,4.2c3.5,0,6.7-1.4,9-3.7c2.3-2.2,4.2-5.5,4.2-10.1c0-3.8-1.4-7.4-4-9.8
			c-2.6-2.5-6.5-3.7-9.6-3.7C456.8,105,453.3,106.6,451.1,108.8z"/>
		<path class="st0" d="M503.7,91.9H521v6.4c5.3-6.7,11.5-7.8,16.5-7.8c4.7,0,10.8,0.8,15.3,5.4c5,5,5.4,11.4,5.4,15.7v33.8h-17.3
			V118c0-3.5-0.1-7.9-2.9-10.7c-1.3-1.3-3.5-2.4-6.6-2.4c-3.6,0-5.9,1.4-7.2,2.9c-2.9,2.9-3.4,6.7-3.4,10.2v27.4h-17.3V91.9
			L503.7,91.9L503.7,91.9z"/>
		<path class="st0" d="M589.4,105.8v39.6h-17.3v-39.6h-6V91.9h6V74.6h17.3v17.3H600v13.9L589.4,105.8L589.4,105.8z"/>
		<path class="st0" d="M617.3,59.1c5.6,0,10.1,4.4,10.1,10.1c0,5.6-4.4,10.1-10.1,10.1c-5.6,0-10.1-4.4-10.1-10.1
			S611.7,59.1,617.3,59.1z M625.9,91.9v53.5h-17.3V91.9H625.9z"/>
		<path class="st0" d="M658.3,58v39.9c4.3-5.9,10.8-7.8,16.7-7.8c7.3,0,13.9,2.8,18.6,7.2c5.2,4.9,8.4,12.2,8.4,21.1
			c0,8.3-2.9,15.9-8.4,21.5c-4.7,4.8-10.4,7.3-18.3,7.3c-9.5,0-14.3-4.4-16.9-8.3v6.5H641V58L658.3,58L658.3,58z M661,109
			c-2,2.2-3.8,5.3-3.8,9.8c0,4.4,1.9,7.7,4,9.6c2.8,2.6,6.6,4,9.8,4c3,0,6.4-1.2,9-3.7c2.5-2.4,4.2-5.9,4.2-9.8
			c0-4.3-1.7-7.8-4.2-10.2c-2.8-2.6-5.8-3.6-9.2-3.6C667,105,663.8,106.1,661,109z"/>
	</g>
	<g>
		<path class="st1" d="M219.1,33.3c-7.4,0.3-13.3,6.3-13.6,13.7c-0.1,2.2-0.4,5.7-0.7,7.7c-0.8,7.4-10.1,16.5-17.3,17.9
			c-1.8,0.4-5.4,0.5-7.3,0.5c-7.9,0-14.3,6.5-14.2,14.3c0,7.9,6.5,14.3,14.3,14.2c7.9,0,14.3-6.5,14.2-14.3c0-2,0.3-5.3,0.7-7.1
			c1.4-7.3,10-17.1,17.3-17.9c1.8-0.2,5.3-0.5,7.3-0.5c7.9,0,14.3-6.5,14.2-14.3C234.1,39.4,227.3,32.9,219.1,33.3z"/>
		<path class="st1" d="M105.1,177.2c7.4-0.3,13.3-6.3,13.6-13.7c0.1-2.2,0.4-5.7,0.7-7.7c0.8-7.4,10.1-16.5,17.3-17.9
			c1.8-0.4,5.4-0.5,7.3-0.5c7.9,0,14.3-6.5,14.2-14.3c0-7.9-6.5-14.3-14.3-14.2c-7.9,0-14.3,6.5-14.2,14.3c0,2-0.3,5.3-0.7,7.1
			c-1.4,7.3-10,17.1-17.3,17.9c-1.8,0.2-5.3,0.5-7.3,0.5c-7.9,0-14.3,6.5-14.2,14.3C90.1,171,96.9,177.6,105.1,177.2z"/>
		<path class="st1" d="M90.1,48.2c0.3,7.4,6.3,13.3,13.7,13.6c2.2,0.1,5.7,0.4,7.7,0.7c7.4,0.8,16.5,10.1,17.9,17.3
			c0.4,1.8,0.5,5.4,0.5,7.3c0,7.9,6.5,14.3,14.3,14.2c7.9,0,14.3-6.5,14.2-14.3c0-7.9-6.5-14.3-14.3-14.2c-2,0-5.3-0.3-7.1-0.7
			c-7.3-1.4-17.1-10-17.9-17.3c-0.2-1.8-0.5-5.3-0.5-7.3c0-7.9-6.5-14.3-14.3-14.2C96.3,33.3,89.8,40,90.1,48.2z"/>
		<path class="st1" d="M234,162c-0.3-7.4-6.3-13.3-13.7-13.6c-2.2-0.1-5.7-0.4-7.7-0.7c-7.4-0.8-16.5-10.1-17.9-17.3
			c-0.4-1.8-0.5-5.4-0.5-7.3c0-7.9-6.5-14.3-14.3-14.2c-7.9,0-14.3,6.5-14.2,14.3c0,7.9,6.5,14.3,14.3,14.2c2,0,5.3,0.3,7.1,0.7
			c7.3,1.4,17.1,10,17.9,17.3c0.2,1.8,0.5,5.3,0.5,7.3c0,7.9,6.5,14.3,14.3,14.2C227.9,177,234.4,170.2,234,162z"/>
		
			<ellipse transform="matrix(0.7154 -0.6987 0.6987 0.7154 -63.8398 157.8903)" class="st2" cx="161.9" cy="157.3" rx="14.3" ry="14.3"/>
		
			<ellipse transform="matrix(0.7154 -0.6987 0.6987 0.7154 9.3145 128.0894)" class="st2" cx="161.9" cy="52.6" rx="14.3" ry="14.3"/>
		
			<ellipse transform="matrix(0.7154 -0.6987 0.6987 0.7154 -12.3428 179.6159)" class="st2" cx="214.3" cy="105" rx="14.3" ry="14.3"/>
		
			<ellipse transform="matrix(0.7154 -0.6987 0.6987 0.7154 -42.1468 106.4685)" class="st2" cx="109.6" cy="105" rx="14.3" ry="14.3"/>
	</g>
</g>
</svg>
