<?xml version="1.0" encoding="utf-8"?>
<!-- Generator: Adobe Illustrator 22.1.0, SVG Export Plug-In . SVG Version: 6.00 Build 0)  -->
<svg version="1.1" id="Ebene_1" xmlns="http://www.w3.org/2000/svg" xmlns:xlink="http://www.w3.org/1999/xlink" x="0px" y="0px"
	 viewBox="0 0 183 183" style="enable-background:new 0 0 183 183;" xml:space="preserve">
<style type="text/css">
	.st0{fill:#034EA2;}
	.st1{fill:#FFFFFF;}
</style>
<g>
	<path class="st0" d="M162.6,162.6c-21.6-9.7-45.6-15.2-70.8-15.2c-25.3,0-49.3,5.4-70.9,15.2V20.9h141.7L162.6,162.6z"/>
	<g>
		<path class="st1" d="M37.9,63.8c-6.7,0-7.2,6.7-7.2,6.7h-3.2v-10h24.8c0,0,0.2,7.7-7.1,15.9c0,0-7,8.1-7.2,11.7h4
			c5.8,0,6.4-6.7,6.4-6.7h3.3v10H26.3c0,0-0.9-7.6,7.9-16.8c0,0,5.4-6,6.7-10.8L37.9,63.8z"/>
		<path class="st1" d="M101,91.4v-3.3h-0.8c-1.4,0-2.5-1.1-2.5-2.5V66.3c0-1.4,1.1-2.5,2.5-2.5h0.8v-3.3H84.6v3.3h0.8
			c1.4,0,2.5,1.1,2.5,2.5v19.3c0,1.4-1.1,2.5-2.5,2.5h-0.8v3.3H101z"/>
		<path class="st1" d="M81.2,91.4v-10h-3.3c0,0-0.6,6.8-6.4,6.8h-3.3V77.6h1.2c1.4,0,2.5,1.1,2.5,2.5v1.2h3.3V70.6h-3.3v1.3
			c0,1.4-1.1,2.5-2.5,2.5h-1.2V63.8h3.3c5.8,0,6.4,6.7,6.4,6.7h3.3v-10H55v3.3h0.8c1.4,0,2.5,1.1,2.5,2.5v19.3
			c0,1.4-1.1,2.5-2.5,2.5H55v3.3L81.2,91.4z"/>
		<path class="st1" d="M118.3,63.8c6.7,0,7.2,6.7,7.2,6.7h3.2v-10H105c0,0-3.7,4.9,6,15.9c0,0,7,8.1,7.1,11.7h-4
			c-5.8,0-6.4-6.7-6.4-6.7h-3.3v10h23.9c0,0,4.3-4.7-6.4-16.8c0,0-5.6-5.8-6.7-10.8L118.3,63.8z"/>
		<path class="st1" d="M146,63.8c6.6,0,7.2,6.7,7.2,6.7h3.2v-10h-23.7c0,0-3.8,4.9,6,15.9c0,0,7,8.1,7.1,11.7h-4
			c-5.8,0-6.4-6.7-6.4-6.7h-3.3v10h23.9c0,0,4.3-4.7-6.4-16.8c0,0-5.6-5.8-6.7-10.8L146,63.8z"/>
	</g>
</g>
</svg>
