<?xml version="1.0" encoding="utf-8"?>
<!-- Generator: Adobe Illustrator 16.0.3, SVG Export Plug-In . SVG Version: 6.00 Build 0)  -->
<!DOCTYPE svg PUBLIC "-//W3C//DTD SVG 1.1//EN" "http://www.w3.org/Graphics/SVG/1.1/DTD/svg11.dtd">
<svg version="1.1" id="Layer_1" xmlns="http://www.w3.org/2000/svg" xmlns:xlink="http://www.w3.org/1999/xlink" x="0px" y="0px"
	 width="143.667px" height="130.833px" viewBox="0 0 143.667 130.833" enable-background="new 0 0 143.667 130.833"
	 xml:space="preserve">
<g>
	<path fill="#FFFFFF" d="M25.064,82.803l10.523-12.141h7.09v32.742h-8.156V82.967l-8.846,10.266h-1.225l-8.844-10.266v20.438H7.451
		V70.663h7.082L25.064,82.803z"/>
	<path fill="#FFFFFF" d="M60.757,70.663v32.742h-8.156V70.663H60.757z"/>
	<path fill="#FFFFFF" d="M70.657,70.663h14.438c5.578,0,9.988,1.527,13.23,4.582s4.863,7.004,4.863,11.848
		c0,5.078-1.645,9.066-4.934,11.965s-7.98,4.348-14.074,4.348H70.657V70.663z M78.813,76.663v20.742h5.32
		c3.453,0,6.094-0.949,7.922-2.848s2.742-4.402,2.742-7.512c0-3.219-0.926-5.754-2.777-7.605s-4.512-2.777-7.98-2.777H78.813z"/>
	<path fill="#FFFFFF" d="M136.549,97.405v6h-24.961V70.663h8.156v26.742H136.549z"/>
</g>
<g>
	<circle fill="#FFFFFF" cx="49.443" cy="52.438" r="7.831"/>
	<line fill="none" stroke="#FFFFFF" stroke-width="2" stroke-miterlimit="10" x1="49.443" y1="52.438" x2="90.931" y2="34.552"/>
	<circle fill="#FFFFFF" cx="90.931" cy="34.552" r="10.054"/>
	<circle fill="#FFFFFF" cx="24.329" cy="38.324" r="5.717"/>
	<line fill="none" stroke="#FFFFFF" stroke-width="2" stroke-miterlimit="10" x1="21.582" y1="36.604" x2="49.931" y2="52.552"/>
	<circle fill="#FFFFFF" cx="119.329" cy="47.324" r="5.717"/>
	<line fill="none" stroke="#FFFFFF" stroke-width="2" stroke-miterlimit="10" x1="90.443" y1="34.438" x2="119.329" y2="47.324"/>
	<line fill="none" stroke="#FFFFFF" stroke-width="2" stroke-miterlimit="10" x1="90.443" y1="33.438" x2="110.047" y2="10.042"/>
	<circle fill="#FFFFFF" cx="110.047" cy="10.042" r="3.436"/>
</g>
<g>
	<path fill="#FFFFFF" d="M14.537,112.581l4.848,10.914h-2.923l-0.899-2.156h-4.888l-0.815,2.156H6.978l4.409-10.914H14.537z
		 M14.767,119.433l-1.769-4.242l-1.603,4.242H14.767z"/>
	<path fill="#FFFFFF" d="M22.751,116.12v0.945c0.787-0.734,1.642-1.102,2.564-1.102c1.267,0,2.152,0.523,2.658,1.57
		c0.891-1.047,1.86-1.57,2.908-1.57c0.85,0,1.542,0.258,2.08,0.774c0.537,0.516,0.805,1.188,0.805,2.018v4.739h-2.32v-4.326
		c0-0.521-0.12-0.927-0.36-1.216s-0.574-0.434-1.002-0.434c-0.679,0-1.29,0.417-1.833,1.251v4.725h-2.313v-4.373
		c0-0.516-0.129-0.913-0.387-1.189s-0.601-0.415-1.027-0.415c-0.609,0-1.201,0.342-1.773,1.025v4.952h-2.32v-7.375H22.751z"/>
	<path fill="#FFFFFF" d="M40.783,116.511v1.648c-0.886-0.542-1.706-0.813-2.461-0.813c-0.558,0-0.836,0.19-0.836,0.57
		c0,0.099,0.059,0.196,0.176,0.293c0.118,0.096,0.567,0.3,1.348,0.611c0.781,0.311,1.333,0.67,1.656,1.076
		c0.323,0.407,0.484,0.853,0.484,1.337c0,0.767-0.261,1.358-0.781,1.775c-0.521,0.417-1.263,0.625-2.227,0.625
		c-0.99,0-1.87-0.18-2.641-0.539v-1.633c0.948,0.417,1.742,0.625,2.383,0.625c0.75,0,1.125-0.182,1.125-0.545
		c0-0.14-0.069-0.273-0.208-0.397s-0.604-0.342-1.395-0.651c-0.791-0.309-1.333-0.649-1.624-1.019
		c-0.292-0.37-0.438-0.782-0.438-1.236c0-0.672,0.28-1.22,0.84-1.642c0.56-0.423,1.298-0.634,2.215-0.634
		C39.28,115.964,40.074,116.146,40.783,116.511z"/>
	<path fill="#FFFFFF" d="M47.837,116.12v1.586H45.15v3.039c0,0.365,0.1,0.652,0.301,0.863c0.2,0.211,0.478,0.316,0.832,0.316
		c0.479,0,0.997-0.143,1.555-0.43v1.68c-0.74,0.308-1.456,0.461-2.148,0.461c-0.906,0-1.609-0.234-2.109-0.703
		s-0.75-1.156-0.75-2.063v-3.164h-1.055v-0.453l3.086-3.453h0.289v2.32H47.837z"/>
	<path fill="#FFFFFF" d="M56.228,121.206v1.461c-0.886,0.646-1.982,0.969-3.289,0.969c-1.297,0-2.333-0.348-3.109-1.044
		c-0.776-0.696-1.164-1.618-1.164-2.765c0-1.126,0.364-2.052,1.094-2.776c0.729-0.725,1.659-1.087,2.789-1.087
		c1.135,0,2.066,0.382,2.793,1.145c0.727,0.763,1.066,1.785,1.02,3.066h-5.297c0.047,0.669,0.284,1.184,0.711,1.545
		c0.427,0.361,1,0.541,1.719,0.541C54.363,122.261,55.275,121.909,56.228,121.206z M51.111,118.956h3.203
		c-0.125-1.073-0.659-1.609-1.602-1.609C51.759,117.347,51.225,117.883,51.111,118.956z"/>
	<path fill="#FFFFFF" d="M60.244,116.12v2.109h0.031c0.672-1.51,1.456-2.266,2.352-2.266c0.427,0,0.94,0.224,1.539,0.672
		l-0.641,2.055c-0.573-0.364-1.031-0.547-1.375-0.547c-0.537,0-0.988,0.333-1.355,0.998s-0.551,1.052-0.551,1.162v3.192h-2.32
		v-7.375H60.244z"/>
	<path fill="#FFFFFF" d="M72.212,112.581v10.914h-2.32v-0.594c-0.594,0.49-1.276,0.734-2.047,0.734
		c-0.984,0-1.806-0.365-2.465-1.095c-0.659-0.73-0.988-1.645-0.988-2.745c0-1.126,0.334-2.046,1.004-2.761
		c0.669-0.714,1.527-1.071,2.574-1.071c0.651,0,1.292,0.156,1.922,0.469v-3.852H72.212z M69.892,121.472v-3.523
		c-0.422-0.286-0.854-0.43-1.297-0.43c-0.583,0-1.038,0.203-1.363,0.609c-0.326,0.406-0.488,0.977-0.488,1.711
		c0,0.677,0.161,1.22,0.484,1.629c0.323,0.409,0.752,0.613,1.289,0.613C68.991,122.081,69.449,121.878,69.892,121.472z"/>
	<path fill="#FFFFFF" d="M81.65,121.675v1.289c-0.771,0.448-1.495,0.672-2.172,0.672c-0.729,0-1.162-0.276-1.297-0.828
		c-0.808,0.552-1.617,0.828-2.43,0.828c-0.573,0-1.06-0.181-1.461-0.544c-0.401-0.362-0.602-0.784-0.602-1.264
		c0-0.642,0.207-1.159,0.621-1.553s1.668-0.901,3.762-1.522c0.052-0.823-0.375-1.234-1.281-1.234c-0.984,0-1.891,0.412-2.719,1.234
		v-1.891c0.969-0.599,2.034-0.898,3.195-0.898c2.083,0,3.125,0.749,3.125,2.245v3.364c0,0.344,0.127,0.516,0.383,0.516
		C80.967,122.089,81.259,121.951,81.65,121.675z M78.072,121.704v-1.787c-0.776,0.271-1.309,0.516-1.598,0.733
		s-0.434,0.493-0.434,0.827c0,0.214,0.073,0.398,0.219,0.552c0.146,0.154,0.323,0.231,0.531,0.231
		C77.228,122.261,77.655,122.075,78.072,121.704z"/>
	<path fill="#FFFFFF" d="M84.978,116.12v0.945c0.787-0.734,1.642-1.102,2.564-1.102c1.267,0,2.152,0.523,2.658,1.57
		c0.891-1.047,1.86-1.57,2.908-1.57c0.85,0,1.542,0.258,2.08,0.774c0.537,0.516,0.805,1.188,0.805,2.018v4.739h-2.32v-4.326
		c0-0.521-0.12-0.927-0.36-1.216s-0.574-0.434-1.002-0.434c-0.679,0-1.29,0.417-1.833,1.251v4.725h-2.313v-4.373
		c0-0.516-0.129-0.913-0.387-1.189s-0.601-0.415-1.027-0.415c-0.609,0-1.201,0.342-1.773,1.025v4.952h-2.32v-7.375H84.978z"/>
	<path fill="#FFFFFF" d="M109.501,121.269v2.227h-7.211v-0.305c0.661-0.807,1.418-1.829,2.27-3.066
		c0.852-1.237,1.389-2.116,1.613-2.637c0.224-0.521,0.336-1.026,0.336-1.516c0-0.427-0.142-0.794-0.426-1.102
		c-0.284-0.307-0.626-0.461-1.027-0.461c-0.797,0-1.672,0.453-2.625,1.359v-2.289c1.067-0.692,2.086-1.039,3.055-1.039
		c1.073,0,1.918,0.276,2.535,0.828c0.617,0.552,0.926,1.31,0.926,2.273c0,1.318-0.987,3.227-2.961,5.727H109.501z"/>
	<path fill="#FFFFFF" d="M114.681,112.44c1.156,0,2.059,0.498,2.707,1.492c0.648,0.995,0.973,2.347,0.973,4.055
		c0,1.776-0.315,3.162-0.945,4.156c-0.63,0.995-1.531,1.492-2.703,1.492c-1.188,0-2.111-0.495-2.77-1.484
		c-0.659-0.989-0.988-2.359-0.988-4.109c0-1.771,0.334-3.147,1.004-4.129C112.627,112.932,113.535,112.44,114.681,112.44z
		 M114.681,121.589c0.438,0,0.755-0.264,0.953-0.793c0.198-0.528,0.297-1.522,0.297-2.98c0-1.213-0.098-2.071-0.293-2.574
		c-0.195-0.502-0.52-0.754-0.973-0.754c-0.443,0-0.767,0.246-0.973,0.738c-0.206,0.492-0.309,1.468-0.309,2.926
		c0,1.224,0.103,2.103,0.309,2.637C113.898,121.322,114.228,121.589,114.681,121.589z"/>
	<path fill="#FFFFFF" d="M124.666,112.581v10.914h-2.414v-10.914H124.666z"/>
	<path fill="#FFFFFF" d="M130.322,117.737c-0.896-0.563-1.344-1.341-1.344-2.336c0-0.885,0.305-1.6,0.914-2.145
		c0.609-0.544,1.409-0.816,2.398-0.816c1.042,0,1.867,0.291,2.477,0.871c0.609,0.581,0.914,1.283,0.914,2.105
		c0,1.016-0.443,1.789-1.328,2.32c1.088,0.563,1.633,1.443,1.633,2.641c0,0.979-0.335,1.767-1.004,2.363
		c-0.669,0.597-1.562,0.895-2.676,0.895c-1.073,0-1.947-0.302-2.621-0.906c-0.675-0.604-1.012-1.383-1.012-2.336
		C128.673,119.128,129.223,118.243,130.322,117.737z M132.353,122.042c0.359,0,0.649-0.152,0.871-0.456
		c0.221-0.304,0.332-0.71,0.332-1.22c0-0.535-0.111-0.96-0.332-1.274c-0.222-0.314-0.517-0.472-0.887-0.472
		c-0.37,0-0.667,0.152-0.891,0.456c-0.224,0.304-0.336,0.71-0.336,1.22c0,0.53,0.114,0.954,0.344,1.271
		C131.684,121.884,131.983,122.042,132.353,122.042z M132.353,117.065c0.313,0,0.556-0.139,0.73-0.418
		c0.174-0.278,0.262-0.663,0.262-1.152c0-0.969-0.341-1.453-1.023-1.453c-0.308,0-0.552,0.132-0.734,0.395
		c-0.183,0.263-0.273,0.626-0.273,1.09c0,0.474,0.094,0.849,0.281,1.125C131.783,116.928,132.035,117.065,132.353,117.065z"/>
</g>
<g>
</g>
<g>
</g>
<g>
</g>
<g>
</g>
<g>
</g>
<g>
</g>
<g>
</g>
<g>
</g>
<g>
</g>
<g>
</g>
<g>
</g>
<g>
</g>
<g>
</g>
<g>
</g>
<g>
</g>
</svg>
